G04 #@! TF.GenerationSoftware,KiCad,Pcbnew,(5.1.5)-3*
G04 #@! TF.CreationDate,2020-04-12T00:57:34+02:00*
G04 #@! TF.ProjectId,schinkli_pumps,73636869-6e6b-46c6-995f-70756d70732e,rev?*
G04 #@! TF.SameCoordinates,Original*
G04 #@! TF.FileFunction,Legend,Bot*
G04 #@! TF.FilePolarity,Positive*
%FSLAX46Y46*%
G04 Gerber Fmt 4.6, Leading zero omitted, Abs format (unit mm)*
G04 Created by KiCad (PCBNEW (5.1.5)-3) date 2020-04-12 00:57:34*
%MOMM*%
%LPD*%
G04 APERTURE LIST*
%ADD10C,0.010000*%
G04 APERTURE END LIST*
D10*
G36*
X68023308Y-119056178D02*
G01*
X67916326Y-119252230D01*
X67853927Y-119544261D01*
X67842214Y-119863345D01*
X67887289Y-120140557D01*
X67920256Y-120219980D01*
X68064271Y-120414405D01*
X68205877Y-120441794D01*
X68355453Y-120303961D01*
X68360435Y-120296917D01*
X68466078Y-120030668D01*
X68494981Y-119694681D01*
X68448973Y-119363658D01*
X68331462Y-119114213D01*
X68208165Y-118982614D01*
X68119135Y-118975462D01*
X68023308Y-119056178D01*
G37*
X68023308Y-119056178D02*
X67916326Y-119252230D01*
X67853927Y-119544261D01*
X67842214Y-119863345D01*
X67887289Y-120140557D01*
X67920256Y-120219980D01*
X68064271Y-120414405D01*
X68205877Y-120441794D01*
X68355453Y-120303961D01*
X68360435Y-120296917D01*
X68466078Y-120030668D01*
X68494981Y-119694681D01*
X68448973Y-119363658D01*
X68331462Y-119114213D01*
X68208165Y-118982614D01*
X68119135Y-118975462D01*
X68023308Y-119056178D01*
G36*
X71614007Y-119037589D02*
G01*
X71507647Y-119253800D01*
X71456270Y-119538606D01*
X71455531Y-119847532D01*
X71501084Y-120136101D01*
X71588585Y-120359839D01*
X71713688Y-120474271D01*
X71755000Y-120480667D01*
X71888405Y-120413617D01*
X71963688Y-120316899D01*
X72031944Y-120076349D01*
X72051620Y-119751977D01*
X72025722Y-119415314D01*
X71957254Y-119137894D01*
X71910340Y-119047048D01*
X71769347Y-118845752D01*
X71614007Y-119037589D01*
G37*
X71614007Y-119037589D02*
X71507647Y-119253800D01*
X71456270Y-119538606D01*
X71455531Y-119847532D01*
X71501084Y-120136101D01*
X71588585Y-120359839D01*
X71713688Y-120474271D01*
X71755000Y-120480667D01*
X71888405Y-120413617D01*
X71963688Y-120316899D01*
X72031944Y-120076349D01*
X72051620Y-119751977D01*
X72025722Y-119415314D01*
X71957254Y-119137894D01*
X71910340Y-119047048D01*
X71769347Y-118845752D01*
X71614007Y-119037589D01*
G36*
X71647267Y-121163001D02*
G01*
X71276369Y-121248247D01*
X71073070Y-121319978D01*
X71002271Y-121409963D01*
X71011077Y-121497721D01*
X71039920Y-121588673D01*
X71091666Y-121635704D01*
X71203577Y-121642073D01*
X71412913Y-121611038D01*
X71695736Y-121557597D01*
X71956986Y-121498197D01*
X72087054Y-121434836D01*
X72123007Y-121344394D01*
X72119069Y-121293553D01*
X72059956Y-121180903D01*
X71910071Y-121137783D01*
X71647267Y-121163001D01*
G37*
X71647267Y-121163001D02*
X71276369Y-121248247D01*
X71073070Y-121319978D01*
X71002271Y-121409963D01*
X71011077Y-121497721D01*
X71039920Y-121588673D01*
X71091666Y-121635704D01*
X71203577Y-121642073D01*
X71412913Y-121611038D01*
X71695736Y-121557597D01*
X71956986Y-121498197D01*
X72087054Y-121434836D01*
X72123007Y-121344394D01*
X72119069Y-121293553D01*
X72059956Y-121180903D01*
X71910071Y-121137783D01*
X71647267Y-121163001D01*
G36*
X67328602Y-120974334D02*
G01*
X67310000Y-121065769D01*
X67343329Y-121155803D01*
X67460829Y-121244722D01*
X67688773Y-121346938D01*
X68053433Y-121476865D01*
X68068566Y-121481947D01*
X68421345Y-121598512D01*
X68646136Y-121663712D01*
X68775178Y-121680956D01*
X68840713Y-121653652D01*
X68874981Y-121585209D01*
X68880629Y-121567798D01*
X68911921Y-121421710D01*
X68905231Y-121374807D01*
X68805348Y-121331315D01*
X68589640Y-121255299D01*
X68304874Y-121161540D01*
X67997816Y-121064818D01*
X67715233Y-120979914D01*
X67503891Y-120921609D01*
X67415545Y-120904000D01*
X67328602Y-120974334D01*
G37*
X67328602Y-120974334D02*
X67310000Y-121065769D01*
X67343329Y-121155803D01*
X67460829Y-121244722D01*
X67688773Y-121346938D01*
X68053433Y-121476865D01*
X68068566Y-121481947D01*
X68421345Y-121598512D01*
X68646136Y-121663712D01*
X68775178Y-121680956D01*
X68840713Y-121653652D01*
X68874981Y-121585209D01*
X68880629Y-121567798D01*
X68911921Y-121421710D01*
X68905231Y-121374807D01*
X68805348Y-121331315D01*
X68589640Y-121255299D01*
X68304874Y-121161540D01*
X67997816Y-121064818D01*
X67715233Y-120979914D01*
X67503891Y-120921609D01*
X67415545Y-120904000D01*
X67328602Y-120974334D01*
G36*
X71050971Y-121867436D02*
G01*
X71043897Y-121974058D01*
X71049000Y-122012780D01*
X71091117Y-122138511D01*
X71202029Y-122213147D01*
X71426646Y-122262578D01*
X71501000Y-122273366D01*
X71828151Y-122319700D01*
X72146536Y-122366466D01*
X72241833Y-122380958D01*
X72448975Y-122402747D01*
X72538736Y-122365682D01*
X72559240Y-122246728D01*
X72559333Y-122228991D01*
X72540703Y-122108867D01*
X72457194Y-122038563D01*
X72267379Y-121994308D01*
X72114833Y-121973931D01*
X71782071Y-121930428D01*
X71457741Y-121883312D01*
X71345334Y-121865313D01*
X71136968Y-121838395D01*
X71050971Y-121867436D01*
G37*
X71050971Y-121867436D02*
X71043897Y-121974058D01*
X71049000Y-122012780D01*
X71091117Y-122138511D01*
X71202029Y-122213147D01*
X71426646Y-122262578D01*
X71501000Y-122273366D01*
X71828151Y-122319700D01*
X72146536Y-122366466D01*
X72241833Y-122380958D01*
X72448975Y-122402747D01*
X72538736Y-122365682D01*
X72559240Y-122246728D01*
X72559333Y-122228991D01*
X72540703Y-122108867D01*
X72457194Y-122038563D01*
X72267379Y-121994308D01*
X72114833Y-121973931D01*
X71782071Y-121930428D01*
X71457741Y-121883312D01*
X71345334Y-121865313D01*
X71136968Y-121838395D01*
X71050971Y-121867436D01*
G36*
X69821660Y-120401715D02*
G01*
X69716870Y-120601503D01*
X69680667Y-120753812D01*
X69642055Y-120921438D01*
X69545925Y-121152828D01*
X69511333Y-121220553D01*
X69404464Y-121490575D01*
X69350780Y-121775900D01*
X69345259Y-122045812D01*
X69382881Y-122269597D01*
X69458624Y-122416541D01*
X69567467Y-122455928D01*
X69698297Y-122364201D01*
X69849034Y-122162119D01*
X69920240Y-122047000D01*
X69991949Y-121928680D01*
X70014073Y-121961527D01*
X70016759Y-122055044D01*
X70072632Y-122225444D01*
X70199197Y-122398136D01*
X70341239Y-122504101D01*
X70382855Y-122512667D01*
X70460612Y-122447558D01*
X70524355Y-122348899D01*
X70599711Y-122072634D01*
X70600972Y-121716041D01*
X70532748Y-121348725D01*
X70442667Y-121115667D01*
X70338388Y-120889839D01*
X70278756Y-120719443D01*
X70273333Y-120683811D01*
X70223901Y-120549978D01*
X70117993Y-120392256D01*
X69962653Y-120200419D01*
X69821660Y-120401715D01*
G37*
X69821660Y-120401715D02*
X69716870Y-120601503D01*
X69680667Y-120753812D01*
X69642055Y-120921438D01*
X69545925Y-121152828D01*
X69511333Y-121220553D01*
X69404464Y-121490575D01*
X69350780Y-121775900D01*
X69345259Y-122045812D01*
X69382881Y-122269597D01*
X69458624Y-122416541D01*
X69567467Y-122455928D01*
X69698297Y-122364201D01*
X69849034Y-122162119D01*
X69920240Y-122047000D01*
X69991949Y-121928680D01*
X70014073Y-121961527D01*
X70016759Y-122055044D01*
X70072632Y-122225444D01*
X70199197Y-122398136D01*
X70341239Y-122504101D01*
X70382855Y-122512667D01*
X70460612Y-122447558D01*
X70524355Y-122348899D01*
X70599711Y-122072634D01*
X70600972Y-121716041D01*
X70532748Y-121348725D01*
X70442667Y-121115667D01*
X70338388Y-120889839D01*
X70278756Y-120719443D01*
X70273333Y-120683811D01*
X70223901Y-120549978D01*
X70117993Y-120392256D01*
X69962653Y-120200419D01*
X69821660Y-120401715D01*
G36*
X68474035Y-121990933D02*
G01*
X68167498Y-122062369D01*
X67742075Y-122175094D01*
X67353758Y-122287852D01*
X67033183Y-122394243D01*
X66811406Y-122482981D01*
X66719484Y-122542783D01*
X66718630Y-122546946D01*
X66745488Y-122682135D01*
X66838952Y-122747854D01*
X67025522Y-122746875D01*
X67331699Y-122681969D01*
X67521667Y-122630946D01*
X67893904Y-122527948D01*
X68253266Y-122429574D01*
X68529748Y-122354972D01*
X68558833Y-122347257D01*
X68799950Y-122272356D01*
X68900094Y-122196671D01*
X68885020Y-122089816D01*
X68841445Y-122013814D01*
X68784492Y-121970545D01*
X68670860Y-121961621D01*
X68474035Y-121990933D01*
G37*
X68474035Y-121990933D02*
X68167498Y-122062369D01*
X67742075Y-122175094D01*
X67353758Y-122287852D01*
X67033183Y-122394243D01*
X66811406Y-122482981D01*
X66719484Y-122542783D01*
X66718630Y-122546946D01*
X66745488Y-122682135D01*
X66838952Y-122747854D01*
X67025522Y-122746875D01*
X67331699Y-122681969D01*
X67521667Y-122630946D01*
X67893904Y-122527948D01*
X68253266Y-122429574D01*
X68529748Y-122354972D01*
X68558833Y-122347257D01*
X68799950Y-122272356D01*
X68900094Y-122196671D01*
X68885020Y-122089816D01*
X68841445Y-122013814D01*
X68784492Y-121970545D01*
X68670860Y-121961621D01*
X68474035Y-121990933D01*
G36*
X72370352Y-112615632D02*
G01*
X72315934Y-112654722D01*
X72259988Y-112742224D01*
X72196144Y-112896426D01*
X72118038Y-113135615D01*
X72019300Y-113478080D01*
X71893565Y-113942109D01*
X71734465Y-114545989D01*
X71674418Y-114775771D01*
X71185542Y-116648543D01*
X70674684Y-116701938D01*
X70395301Y-116721966D01*
X69996653Y-116738557D01*
X69528802Y-116750145D01*
X69041805Y-116755165D01*
X68969747Y-116755255D01*
X67775667Y-116755176D01*
X67023326Y-114829088D01*
X66811361Y-114290689D01*
X66616447Y-113803657D01*
X66447902Y-113390625D01*
X66315042Y-113074231D01*
X66227183Y-112877110D01*
X66197222Y-112821962D01*
X66123802Y-112785029D01*
X66041238Y-112839058D01*
X65943239Y-112997474D01*
X65823516Y-113273698D01*
X65675779Y-113681156D01*
X65493738Y-114233269D01*
X65405494Y-114511667D01*
X65082596Y-115555246D01*
X64767950Y-116603151D01*
X64465051Y-117641676D01*
X64177397Y-118657115D01*
X63908484Y-119635765D01*
X63661808Y-120563920D01*
X63440868Y-121427875D01*
X63249159Y-122213926D01*
X63090179Y-122908368D01*
X62967423Y-123497496D01*
X62884390Y-123967605D01*
X62844576Y-124304990D01*
X62851477Y-124495947D01*
X62855130Y-124507143D01*
X62955514Y-124621035D01*
X63079479Y-124598817D01*
X63176992Y-124456870D01*
X63193015Y-124396500D01*
X63227082Y-124219196D01*
X63284094Y-123920857D01*
X63355399Y-123546809D01*
X63415243Y-123232333D01*
X63562716Y-122525403D01*
X63762751Y-121675236D01*
X64011091Y-120698110D01*
X64303477Y-119610302D01*
X64635652Y-118428092D01*
X64987567Y-117221000D01*
X65248931Y-116341123D01*
X65467187Y-115611391D01*
X65646395Y-115019320D01*
X65790614Y-114552423D01*
X65903904Y-114198214D01*
X65990324Y-113944208D01*
X66053934Y-113777919D01*
X66098793Y-113686861D01*
X66128961Y-113658549D01*
X66142745Y-113668087D01*
X66188024Y-113769861D01*
X66286728Y-114010524D01*
X66431305Y-114370992D01*
X66614205Y-114832181D01*
X66827876Y-115375006D01*
X67064766Y-115980384D01*
X67317324Y-116629231D01*
X67456479Y-116988167D01*
X67551587Y-117024430D01*
X67786734Y-117053817D01*
X68132766Y-117076325D01*
X68560530Y-117091956D01*
X69040869Y-117100710D01*
X69544631Y-117102585D01*
X70042661Y-117097583D01*
X70505805Y-117085703D01*
X70904908Y-117066946D01*
X71210817Y-117041311D01*
X71394376Y-117008798D01*
X71432503Y-116988167D01*
X71474980Y-116876664D01*
X71552929Y-116628409D01*
X71658437Y-116270330D01*
X71783590Y-115829353D01*
X71920473Y-115332407D01*
X71936398Y-115273667D01*
X72071208Y-114790451D01*
X72194074Y-114377977D01*
X72297713Y-114058467D01*
X72374840Y-113854147D01*
X72418171Y-113787242D01*
X72422022Y-113792000D01*
X72456746Y-113917374D01*
X72522360Y-114190698D01*
X72614982Y-114594198D01*
X72730731Y-115110099D01*
X72865725Y-115720628D01*
X73016083Y-116408009D01*
X73177924Y-117154468D01*
X73347365Y-117942231D01*
X73520524Y-118753523D01*
X73693522Y-119570569D01*
X73862474Y-120375596D01*
X73919679Y-120650000D01*
X74049854Y-121274895D01*
X74170525Y-121852820D01*
X74276913Y-122360982D01*
X74364235Y-122776588D01*
X74427710Y-123076847D01*
X74462558Y-123238965D01*
X74465831Y-123253500D01*
X74549812Y-123385758D01*
X74683141Y-123444993D01*
X74802393Y-123419903D01*
X74845333Y-123321117D01*
X74827879Y-123204199D01*
X74777999Y-122939319D01*
X74699422Y-122543945D01*
X74595874Y-122035542D01*
X74471082Y-121431579D01*
X74328773Y-120749523D01*
X74172673Y-120006841D01*
X74006510Y-119221000D01*
X73834011Y-118409468D01*
X73658902Y-117589710D01*
X73484911Y-116779196D01*
X73315764Y-115995392D01*
X73155188Y-115255765D01*
X73006910Y-114577782D01*
X72874658Y-113978911D01*
X72762157Y-113476618D01*
X72673135Y-113088372D01*
X72611318Y-112831638D01*
X72590851Y-112754833D01*
X72498539Y-112629120D01*
X72429607Y-112606667D01*
X72370352Y-112615632D01*
G37*
X72370352Y-112615632D02*
X72315934Y-112654722D01*
X72259988Y-112742224D01*
X72196144Y-112896426D01*
X72118038Y-113135615D01*
X72019300Y-113478080D01*
X71893565Y-113942109D01*
X71734465Y-114545989D01*
X71674418Y-114775771D01*
X71185542Y-116648543D01*
X70674684Y-116701938D01*
X70395301Y-116721966D01*
X69996653Y-116738557D01*
X69528802Y-116750145D01*
X69041805Y-116755165D01*
X68969747Y-116755255D01*
X67775667Y-116755176D01*
X67023326Y-114829088D01*
X66811361Y-114290689D01*
X66616447Y-113803657D01*
X66447902Y-113390625D01*
X66315042Y-113074231D01*
X66227183Y-112877110D01*
X66197222Y-112821962D01*
X66123802Y-112785029D01*
X66041238Y-112839058D01*
X65943239Y-112997474D01*
X65823516Y-113273698D01*
X65675779Y-113681156D01*
X65493738Y-114233269D01*
X65405494Y-114511667D01*
X65082596Y-115555246D01*
X64767950Y-116603151D01*
X64465051Y-117641676D01*
X64177397Y-118657115D01*
X63908484Y-119635765D01*
X63661808Y-120563920D01*
X63440868Y-121427875D01*
X63249159Y-122213926D01*
X63090179Y-122908368D01*
X62967423Y-123497496D01*
X62884390Y-123967605D01*
X62844576Y-124304990D01*
X62851477Y-124495947D01*
X62855130Y-124507143D01*
X62955514Y-124621035D01*
X63079479Y-124598817D01*
X63176992Y-124456870D01*
X63193015Y-124396500D01*
X63227082Y-124219196D01*
X63284094Y-123920857D01*
X63355399Y-123546809D01*
X63415243Y-123232333D01*
X63562716Y-122525403D01*
X63762751Y-121675236D01*
X64011091Y-120698110D01*
X64303477Y-119610302D01*
X64635652Y-118428092D01*
X64987567Y-117221000D01*
X65248931Y-116341123D01*
X65467187Y-115611391D01*
X65646395Y-115019320D01*
X65790614Y-114552423D01*
X65903904Y-114198214D01*
X65990324Y-113944208D01*
X66053934Y-113777919D01*
X66098793Y-113686861D01*
X66128961Y-113658549D01*
X66142745Y-113668087D01*
X66188024Y-113769861D01*
X66286728Y-114010524D01*
X66431305Y-114370992D01*
X66614205Y-114832181D01*
X66827876Y-115375006D01*
X67064766Y-115980384D01*
X67317324Y-116629231D01*
X67456479Y-116988167D01*
X67551587Y-117024430D01*
X67786734Y-117053817D01*
X68132766Y-117076325D01*
X68560530Y-117091956D01*
X69040869Y-117100710D01*
X69544631Y-117102585D01*
X70042661Y-117097583D01*
X70505805Y-117085703D01*
X70904908Y-117066946D01*
X71210817Y-117041311D01*
X71394376Y-117008798D01*
X71432503Y-116988167D01*
X71474980Y-116876664D01*
X71552929Y-116628409D01*
X71658437Y-116270330D01*
X71783590Y-115829353D01*
X71920473Y-115332407D01*
X71936398Y-115273667D01*
X72071208Y-114790451D01*
X72194074Y-114377977D01*
X72297713Y-114058467D01*
X72374840Y-113854147D01*
X72418171Y-113787242D01*
X72422022Y-113792000D01*
X72456746Y-113917374D01*
X72522360Y-114190698D01*
X72614982Y-114594198D01*
X72730731Y-115110099D01*
X72865725Y-115720628D01*
X73016083Y-116408009D01*
X73177924Y-117154468D01*
X73347365Y-117942231D01*
X73520524Y-118753523D01*
X73693522Y-119570569D01*
X73862474Y-120375596D01*
X73919679Y-120650000D01*
X74049854Y-121274895D01*
X74170525Y-121852820D01*
X74276913Y-122360982D01*
X74364235Y-122776588D01*
X74427710Y-123076847D01*
X74462558Y-123238965D01*
X74465831Y-123253500D01*
X74549812Y-123385758D01*
X74683141Y-123444993D01*
X74802393Y-123419903D01*
X74845333Y-123321117D01*
X74827879Y-123204199D01*
X74777999Y-122939319D01*
X74699422Y-122543945D01*
X74595874Y-122035542D01*
X74471082Y-121431579D01*
X74328773Y-120749523D01*
X74172673Y-120006841D01*
X74006510Y-119221000D01*
X73834011Y-118409468D01*
X73658902Y-117589710D01*
X73484911Y-116779196D01*
X73315764Y-115995392D01*
X73155188Y-115255765D01*
X73006910Y-114577782D01*
X72874658Y-113978911D01*
X72762157Y-113476618D01*
X72673135Y-113088372D01*
X72611318Y-112831638D01*
X72590851Y-112754833D01*
X72498539Y-112629120D01*
X72429607Y-112606667D01*
X72370352Y-112615632D01*
M02*
