G04 #@! TF.GenerationSoftware,KiCad,Pcbnew,(5.1.5)-3*
G04 #@! TF.CreationDate,2020-04-12T00:57:34+02:00*
G04 #@! TF.ProjectId,schinkli_pumps,73636869-6e6b-46c6-995f-70756d70732e,rev?*
G04 #@! TF.SameCoordinates,Original*
G04 #@! TF.FileFunction,Copper,L1,Top*
G04 #@! TF.FilePolarity,Positive*
%FSLAX46Y46*%
G04 Gerber Fmt 4.6, Leading zero omitted, Abs format (unit mm)*
G04 Created by KiCad (PCBNEW (5.1.5)-3) date 2020-04-12 00:57:34*
%MOMM*%
%LPD*%
G04 APERTURE LIST*
%ADD10O,1.700000X1.700000*%
%ADD11R,1.700000X1.700000*%
%ADD12C,3.500120*%
%ADD13R,3.500120X3.500120*%
%ADD14O,1.905000X2.000000*%
%ADD15R,1.905000X2.000000*%
%ADD16R,1.000000X1.500000*%
%ADD17C,0.800000*%
%ADD18C,0.250000*%
%ADD19C,1.200000*%
%ADD20C,0.254000*%
G04 APERTURE END LIST*
D10*
X53500000Y-121200000D03*
X53500000Y-118660000D03*
X53500000Y-116120000D03*
X53500000Y-113580000D03*
X53500000Y-111040000D03*
D11*
X53500000Y-108500000D03*
D12*
X81820000Y-118600000D03*
D13*
X86900000Y-118600000D03*
D12*
X81820000Y-111600000D03*
D13*
X86900000Y-111600000D03*
D14*
X75980000Y-126700000D03*
X73440000Y-126700000D03*
D15*
X70900000Y-126700000D03*
D14*
X64780000Y-126700000D03*
X62240000Y-126700000D03*
D15*
X59700000Y-126700000D03*
D16*
X72200000Y-103600000D03*
X73500000Y-103600000D03*
X74800000Y-103600000D03*
X61100000Y-103600000D03*
X62400000Y-103600000D03*
X63700000Y-103600000D03*
D17*
X75000000Y-107188000D03*
X75184000Y-117000000D03*
X77216000Y-107188000D03*
X77216000Y-109000000D03*
X66040000Y-109000000D03*
X66040000Y-111000000D03*
X63500000Y-113000000D03*
X60960000Y-113000000D03*
X60960000Y-115000000D03*
X63500000Y-115000000D03*
X75184000Y-115500000D03*
X77216000Y-115500000D03*
X77216000Y-111000000D03*
X62382400Y-103606600D03*
X73507600Y-103606600D03*
D18*
X53500000Y-121200000D02*
X55568010Y-119131990D01*
X55568010Y-119131990D02*
X55568010Y-112962400D01*
X55568010Y-112962400D02*
X62548205Y-105982205D01*
X74800000Y-104600000D02*
X74800000Y-103600000D01*
X73417795Y-105982205D02*
X74800000Y-104600000D01*
X62548205Y-105982205D02*
X73417795Y-105982205D01*
X63700000Y-102616000D02*
X63371010Y-102362000D01*
X52324999Y-117484999D02*
X53500000Y-118660000D01*
X63700000Y-103600000D02*
X63700000Y-102616000D01*
X63371010Y-102362000D02*
X60198000Y-102362000D01*
X52324999Y-113015999D02*
X52324999Y-117484999D01*
X60198000Y-102362000D02*
X59182000Y-103378000D01*
X59182000Y-103378000D02*
X59182000Y-107188000D01*
X53125997Y-112215001D02*
X52324999Y-113015999D01*
X59182000Y-107188000D02*
X54228589Y-112215001D01*
X54228589Y-112215001D02*
X53125997Y-112215001D01*
X55118000Y-114554000D02*
X55118000Y-112776000D01*
X53500000Y-116120000D02*
X55118000Y-114554000D01*
X62484000Y-105410000D02*
X71374000Y-105410000D01*
X71374000Y-105410000D02*
X72200000Y-104600000D01*
X72200000Y-104600000D02*
X72200000Y-103600000D01*
X55118000Y-112776000D02*
X62484000Y-105410000D01*
X61100000Y-105980000D02*
X61100000Y-103600000D01*
X53500000Y-113580000D02*
X61100000Y-105980000D01*
D19*
X64780000Y-126747500D02*
X64780000Y-126700000D01*
X53500000Y-111040000D02*
X53500000Y-111137998D01*
X75980000Y-126747500D02*
X75980000Y-126700000D01*
X86900000Y-111600000D02*
X86900000Y-118600000D01*
X76454000Y-100838000D02*
X86900000Y-111600000D01*
X54356000Y-108500000D02*
X57658000Y-105156000D01*
X57658000Y-105156000D02*
X57658000Y-102870000D01*
X53500000Y-108500000D02*
X54356000Y-108500000D01*
X57658000Y-102870000D02*
X59690000Y-100838000D01*
X59690000Y-100838000D02*
X76454000Y-100838000D01*
X62240000Y-124500000D02*
X62240000Y-126700000D01*
X80069941Y-113350059D02*
X73389941Y-113350059D01*
X73389941Y-113350059D02*
X62240000Y-124500000D01*
X81820000Y-111600000D02*
X80069941Y-113350059D01*
X77589941Y-120350059D02*
X73440000Y-124500000D01*
X80069941Y-120350059D02*
X77589941Y-120350059D01*
X73440000Y-124500000D02*
X73440000Y-126700000D01*
X81820000Y-118600000D02*
X80069941Y-120350059D01*
D20*
G36*
X56900237Y-102033945D02*
G01*
X56857236Y-102069235D01*
X56821946Y-102112236D01*
X56821942Y-102112240D01*
X56716400Y-102240844D01*
X56611750Y-102436630D01*
X56588136Y-102514477D01*
X56547308Y-102649069D01*
X56538802Y-102735435D01*
X56525548Y-102870000D01*
X56531001Y-102925364D01*
X56531000Y-104693347D01*
X54134382Y-107120451D01*
X52650000Y-107120451D01*
X52546690Y-107130626D01*
X52447350Y-107160761D01*
X52355798Y-107209696D01*
X52275552Y-107275552D01*
X52209696Y-107355798D01*
X52160761Y-107447350D01*
X52130626Y-107546690D01*
X52120451Y-107650000D01*
X52120451Y-109350000D01*
X52130626Y-109453310D01*
X52160761Y-109552650D01*
X52209696Y-109644202D01*
X52275552Y-109724448D01*
X52355798Y-109790304D01*
X52447350Y-109839239D01*
X52546690Y-109869374D01*
X52650000Y-109879549D01*
X52766642Y-109879549D01*
X52719287Y-109905705D01*
X52512998Y-110079810D01*
X52344639Y-110290814D01*
X52220680Y-110530609D01*
X52153285Y-110752791D01*
X52256892Y-110967000D01*
X53427000Y-110967000D01*
X53427000Y-110947000D01*
X53573000Y-110947000D01*
X53573000Y-110967000D01*
X53593000Y-110967000D01*
X53593000Y-111113000D01*
X53573000Y-111113000D01*
X53573000Y-111133000D01*
X53427000Y-111133000D01*
X53427000Y-111113000D01*
X52256892Y-111113000D01*
X52153285Y-111327209D01*
X52220680Y-111549391D01*
X52344639Y-111789186D01*
X52471167Y-111947764D01*
X51886617Y-112532315D01*
X51861735Y-112552735D01*
X51780258Y-112652016D01*
X51737332Y-112732326D01*
X51719716Y-112765283D01*
X51682434Y-112888185D01*
X51669845Y-113015999D01*
X51672999Y-113048021D01*
X51673000Y-117452967D01*
X51669845Y-117484999D01*
X51682434Y-117612813D01*
X51719716Y-117735715D01*
X51719717Y-117735716D01*
X51780259Y-117848983D01*
X51861736Y-117948263D01*
X51886613Y-117968679D01*
X52176023Y-118258089D01*
X52175917Y-118258344D01*
X52123000Y-118524377D01*
X52123000Y-118795623D01*
X52175917Y-119061656D01*
X52279718Y-119312254D01*
X52430414Y-119537787D01*
X52622213Y-119729586D01*
X52847746Y-119880282D01*
X52967776Y-119930000D01*
X52847746Y-119979718D01*
X52622213Y-120130414D01*
X52430414Y-120322213D01*
X52279718Y-120547746D01*
X52175917Y-120798344D01*
X52123000Y-121064377D01*
X52123000Y-121335623D01*
X52175917Y-121601656D01*
X52279718Y-121852254D01*
X52430414Y-122077787D01*
X52622213Y-122269586D01*
X52847746Y-122420282D01*
X53098344Y-122524083D01*
X53364377Y-122577000D01*
X53635623Y-122577000D01*
X53901656Y-122524083D01*
X54152254Y-122420282D01*
X54377787Y-122269586D01*
X54569586Y-122077787D01*
X54720282Y-121852254D01*
X54824083Y-121601656D01*
X54877000Y-121335623D01*
X54877000Y-121064377D01*
X54824083Y-120798344D01*
X54823977Y-120798089D01*
X56006398Y-119615669D01*
X56031274Y-119595254D01*
X56112751Y-119495974D01*
X56173293Y-119382707D01*
X56208913Y-119265283D01*
X56210575Y-119259805D01*
X56223164Y-119131990D01*
X56220010Y-119099968D01*
X56220010Y-113232466D01*
X60044011Y-109408465D01*
X59963000Y-109815735D01*
X59963000Y-110264265D01*
X60050504Y-110704176D01*
X60222149Y-111118564D01*
X60471339Y-111491503D01*
X60788497Y-111808661D01*
X61161436Y-112057851D01*
X61575824Y-112229496D01*
X62015735Y-112317000D01*
X62464265Y-112317000D01*
X62904176Y-112229496D01*
X63318564Y-112057851D01*
X63691503Y-111808661D01*
X64008661Y-111491503D01*
X64257851Y-111118564D01*
X64429496Y-110704176D01*
X64517000Y-110264265D01*
X64517000Y-109815735D01*
X64429496Y-109375824D01*
X64257851Y-108961436D01*
X64008661Y-108588497D01*
X63691503Y-108271339D01*
X63318564Y-108022149D01*
X62904176Y-107850504D01*
X62464265Y-107763000D01*
X62015735Y-107763000D01*
X61608466Y-107844011D01*
X62818272Y-106634205D01*
X73385773Y-106634205D01*
X73417795Y-106637359D01*
X73449817Y-106634205D01*
X73545609Y-106624770D01*
X73668512Y-106587488D01*
X73781779Y-106526946D01*
X73881059Y-106445469D01*
X73901480Y-106420586D01*
X75238388Y-105083679D01*
X75263264Y-105063264D01*
X75344741Y-104963984D01*
X75394866Y-104870206D01*
X75403310Y-104869374D01*
X75502650Y-104839239D01*
X75594202Y-104790304D01*
X75674448Y-104724448D01*
X75740304Y-104644202D01*
X75789239Y-104552650D01*
X75819374Y-104453310D01*
X75829549Y-104350000D01*
X75829549Y-102850000D01*
X75819374Y-102746690D01*
X75789239Y-102647350D01*
X75740304Y-102555798D01*
X75674448Y-102475552D01*
X75594202Y-102409696D01*
X75502650Y-102360761D01*
X75403310Y-102330626D01*
X75300000Y-102320451D01*
X74300000Y-102320451D01*
X74196690Y-102330626D01*
X74150000Y-102344790D01*
X74103310Y-102330626D01*
X74000000Y-102320451D01*
X73000000Y-102320451D01*
X72896690Y-102330626D01*
X72850000Y-102344790D01*
X72803310Y-102330626D01*
X72700000Y-102320451D01*
X71700000Y-102320451D01*
X71596690Y-102330626D01*
X71497350Y-102360761D01*
X71405798Y-102409696D01*
X71325552Y-102475552D01*
X71259696Y-102555798D01*
X71210761Y-102647350D01*
X71180626Y-102746690D01*
X71170451Y-102850000D01*
X71170451Y-104350000D01*
X71180626Y-104453310D01*
X71210761Y-104552650D01*
X71247319Y-104621047D01*
X71107661Y-104758000D01*
X64533565Y-104758000D01*
X64574448Y-104724448D01*
X64640304Y-104644202D01*
X64689239Y-104552650D01*
X64719374Y-104453310D01*
X64729549Y-104350000D01*
X64729549Y-102850000D01*
X64719374Y-102746690D01*
X64689239Y-102647350D01*
X64640304Y-102555798D01*
X64574448Y-102475552D01*
X64494202Y-102409696D01*
X64402650Y-102360761D01*
X64303310Y-102330626D01*
X64285839Y-102328905D01*
X64285528Y-102328324D01*
X64268351Y-102290112D01*
X64255330Y-102271827D01*
X64244741Y-102252016D01*
X64218147Y-102219611D01*
X64193852Y-102185494D01*
X64177516Y-102170102D01*
X64163264Y-102152736D01*
X64130860Y-102126143D01*
X64123795Y-102119486D01*
X64106135Y-102105851D01*
X64063984Y-102071259D01*
X64055357Y-102066648D01*
X63923699Y-101965000D01*
X75977316Y-101965000D01*
X84620391Y-110869536D01*
X84620391Y-113350060D01*
X84630566Y-113453370D01*
X84660701Y-113552710D01*
X84709636Y-113644262D01*
X84775492Y-113724508D01*
X84855738Y-113790364D01*
X84947290Y-113839299D01*
X85046630Y-113869434D01*
X85149940Y-113879609D01*
X85773000Y-113879609D01*
X85773001Y-116320391D01*
X85149940Y-116320391D01*
X85046630Y-116330566D01*
X84947290Y-116360701D01*
X84855738Y-116409636D01*
X84775492Y-116475492D01*
X84709636Y-116555738D01*
X84660701Y-116647290D01*
X84630566Y-116746630D01*
X84620391Y-116849940D01*
X84620391Y-120350060D01*
X84630566Y-120453370D01*
X84660701Y-120552710D01*
X84709636Y-120644262D01*
X84775492Y-120724508D01*
X84855738Y-120790364D01*
X84947290Y-120839299D01*
X85046630Y-120869434D01*
X85149940Y-120879609D01*
X88650060Y-120879609D01*
X88753370Y-120869434D01*
X88852710Y-120839299D01*
X88944262Y-120790364D01*
X89024508Y-120724508D01*
X89090364Y-120644262D01*
X89139299Y-120552710D01*
X89169434Y-120453370D01*
X89179609Y-120350060D01*
X89179609Y-116849940D01*
X89169434Y-116746630D01*
X89139299Y-116647290D01*
X89090364Y-116555738D01*
X89024508Y-116475492D01*
X88944262Y-116409636D01*
X88852710Y-116360701D01*
X88753370Y-116330566D01*
X88650060Y-116320391D01*
X88027000Y-116320391D01*
X88027000Y-113879609D01*
X88650060Y-113879609D01*
X88753370Y-113869434D01*
X88852710Y-113839299D01*
X88944262Y-113790364D01*
X89024508Y-113724508D01*
X89090364Y-113644262D01*
X89139299Y-113552710D01*
X89169434Y-113453370D01*
X89179609Y-113350060D01*
X89179609Y-109849940D01*
X89169434Y-109746630D01*
X89139299Y-109647290D01*
X89090364Y-109555738D01*
X89024508Y-109475492D01*
X88944262Y-109409636D01*
X88852710Y-109360701D01*
X88753370Y-109330566D01*
X88650060Y-109320391D01*
X86257920Y-109320391D01*
X80405091Y-103290509D01*
X84373000Y-103290509D01*
X84373000Y-103709491D01*
X84454739Y-104120423D01*
X84615077Y-104507512D01*
X84847851Y-104855884D01*
X85144116Y-105152149D01*
X85492488Y-105384923D01*
X85879577Y-105545261D01*
X86290509Y-105627000D01*
X86709491Y-105627000D01*
X87120423Y-105545261D01*
X87507512Y-105384923D01*
X87855884Y-105152149D01*
X88152149Y-104855884D01*
X88384923Y-104507512D01*
X88545261Y-104120423D01*
X88627000Y-103709491D01*
X88627000Y-103290509D01*
X88545261Y-102879577D01*
X88384923Y-102492488D01*
X88152149Y-102144116D01*
X87855884Y-101847851D01*
X87507512Y-101615077D01*
X87120423Y-101454739D01*
X86709491Y-101373000D01*
X86290509Y-101373000D01*
X85879577Y-101454739D01*
X85492488Y-101615077D01*
X85144116Y-101847851D01*
X84847851Y-102144116D01*
X84615077Y-102492488D01*
X84454739Y-102879577D01*
X84373000Y-103290509D01*
X80405091Y-103290509D01*
X77746991Y-100552000D01*
X87973008Y-100552000D01*
X88280737Y-100582173D01*
X88550779Y-100663704D01*
X88799845Y-100796134D01*
X89018444Y-100974420D01*
X89198254Y-101191772D01*
X89332416Y-101439900D01*
X89415832Y-101709374D01*
X89448000Y-102015432D01*
X89448001Y-127972997D01*
X89417827Y-128280733D01*
X89336297Y-128550778D01*
X89203863Y-128799848D01*
X89025582Y-129018442D01*
X88808228Y-129198254D01*
X88560100Y-129332416D01*
X88290626Y-129415832D01*
X87984568Y-129448000D01*
X52026992Y-129448000D01*
X51719267Y-129417827D01*
X51449222Y-129336297D01*
X51200152Y-129203863D01*
X50981558Y-129025582D01*
X50801746Y-128808228D01*
X50667584Y-128560100D01*
X50584168Y-128290626D01*
X50552000Y-127984568D01*
X50552000Y-126290509D01*
X51373000Y-126290509D01*
X51373000Y-126709491D01*
X51454739Y-127120423D01*
X51615077Y-127507512D01*
X51847851Y-127855884D01*
X52144116Y-128152149D01*
X52492488Y-128384923D01*
X52879577Y-128545261D01*
X53290509Y-128627000D01*
X53709491Y-128627000D01*
X54120423Y-128545261D01*
X54507512Y-128384923D01*
X54855884Y-128152149D01*
X55152149Y-127855884D01*
X55384923Y-127507512D01*
X55545261Y-127120423D01*
X55627000Y-126709491D01*
X55627000Y-126290509D01*
X55545261Y-125879577D01*
X55470878Y-125700000D01*
X58217951Y-125700000D01*
X58217951Y-127700000D01*
X58228126Y-127803310D01*
X58258261Y-127902650D01*
X58307196Y-127994202D01*
X58373052Y-128074448D01*
X58453298Y-128140304D01*
X58544850Y-128189239D01*
X58644190Y-128219374D01*
X58747500Y-128229549D01*
X60652500Y-128229549D01*
X60755810Y-128219374D01*
X60855150Y-128189239D01*
X60946702Y-128140304D01*
X61026948Y-128074448D01*
X61092804Y-127994202D01*
X61141739Y-127902650D01*
X61171874Y-127803310D01*
X61174088Y-127780831D01*
X61188774Y-127798726D01*
X61414058Y-127983611D01*
X61671082Y-128120993D01*
X61949968Y-128205592D01*
X62240000Y-128234158D01*
X62530033Y-128205592D01*
X62808919Y-128120993D01*
X63065943Y-127983611D01*
X63291226Y-127798726D01*
X63476111Y-127573442D01*
X63513191Y-127504070D01*
X63532378Y-127541951D01*
X63711340Y-127770085D01*
X63931370Y-127958922D01*
X64184013Y-128101204D01*
X64459559Y-128191464D01*
X64476736Y-128195585D01*
X64707000Y-128093272D01*
X64707000Y-126773000D01*
X64853000Y-126773000D01*
X64853000Y-128093272D01*
X65083264Y-128195585D01*
X65100441Y-128191464D01*
X65375987Y-128101204D01*
X65628630Y-127958922D01*
X65848660Y-127770085D01*
X66027622Y-127541951D01*
X66158639Y-127283287D01*
X66236676Y-127004033D01*
X66127122Y-126773000D01*
X64853000Y-126773000D01*
X64707000Y-126773000D01*
X64687000Y-126773000D01*
X64687000Y-126627000D01*
X64707000Y-126627000D01*
X64707000Y-125306728D01*
X64853000Y-125306728D01*
X64853000Y-126627000D01*
X66127122Y-126627000D01*
X66236676Y-126395967D01*
X66158639Y-126116713D01*
X66027622Y-125858049D01*
X65903639Y-125700000D01*
X69417951Y-125700000D01*
X69417951Y-127700000D01*
X69428126Y-127803310D01*
X69458261Y-127902650D01*
X69507196Y-127994202D01*
X69573052Y-128074448D01*
X69653298Y-128140304D01*
X69744850Y-128189239D01*
X69844190Y-128219374D01*
X69947500Y-128229549D01*
X71852500Y-128229549D01*
X71955810Y-128219374D01*
X72055150Y-128189239D01*
X72146702Y-128140304D01*
X72226948Y-128074448D01*
X72292804Y-127994202D01*
X72341739Y-127902650D01*
X72371874Y-127803310D01*
X72374088Y-127780831D01*
X72388774Y-127798726D01*
X72614058Y-127983611D01*
X72871082Y-128120993D01*
X73149968Y-128205592D01*
X73440000Y-128234158D01*
X73730033Y-128205592D01*
X74008919Y-128120993D01*
X74265943Y-127983611D01*
X74491226Y-127798726D01*
X74676111Y-127573442D01*
X74713191Y-127504070D01*
X74732378Y-127541951D01*
X74911340Y-127770085D01*
X75131370Y-127958922D01*
X75384013Y-128101204D01*
X75659559Y-128191464D01*
X75676736Y-128195585D01*
X75907000Y-128093272D01*
X75907000Y-126773000D01*
X76053000Y-126773000D01*
X76053000Y-128093272D01*
X76283264Y-128195585D01*
X76300441Y-128191464D01*
X76575987Y-128101204D01*
X76828630Y-127958922D01*
X77048660Y-127770085D01*
X77227622Y-127541951D01*
X77358639Y-127283287D01*
X77436676Y-127004033D01*
X77327122Y-126773000D01*
X76053000Y-126773000D01*
X75907000Y-126773000D01*
X75887000Y-126773000D01*
X75887000Y-126627000D01*
X75907000Y-126627000D01*
X75907000Y-125306728D01*
X76053000Y-125306728D01*
X76053000Y-126627000D01*
X77327122Y-126627000D01*
X77436676Y-126395967D01*
X77407206Y-126290509D01*
X84373000Y-126290509D01*
X84373000Y-126709491D01*
X84454739Y-127120423D01*
X84615077Y-127507512D01*
X84847851Y-127855884D01*
X85144116Y-128152149D01*
X85492488Y-128384923D01*
X85879577Y-128545261D01*
X86290509Y-128627000D01*
X86709491Y-128627000D01*
X87120423Y-128545261D01*
X87507512Y-128384923D01*
X87855884Y-128152149D01*
X88152149Y-127855884D01*
X88384923Y-127507512D01*
X88545261Y-127120423D01*
X88627000Y-126709491D01*
X88627000Y-126290509D01*
X88545261Y-125879577D01*
X88384923Y-125492488D01*
X88152149Y-125144116D01*
X87855884Y-124847851D01*
X87507512Y-124615077D01*
X87120423Y-124454739D01*
X86709491Y-124373000D01*
X86290509Y-124373000D01*
X85879577Y-124454739D01*
X85492488Y-124615077D01*
X85144116Y-124847851D01*
X84847851Y-125144116D01*
X84615077Y-125492488D01*
X84454739Y-125879577D01*
X84373000Y-126290509D01*
X77407206Y-126290509D01*
X77358639Y-126116713D01*
X77227622Y-125858049D01*
X77048660Y-125629915D01*
X76828630Y-125441078D01*
X76575987Y-125298796D01*
X76300441Y-125208536D01*
X76283264Y-125204415D01*
X76053000Y-125306728D01*
X75907000Y-125306728D01*
X75676736Y-125204415D01*
X75659559Y-125208536D01*
X75384013Y-125298796D01*
X75131370Y-125441078D01*
X74911340Y-125629915D01*
X74732378Y-125858049D01*
X74713191Y-125895929D01*
X74676111Y-125826557D01*
X74567000Y-125693605D01*
X74567000Y-124966818D01*
X78056760Y-121477059D01*
X80014587Y-121477059D01*
X80069941Y-121482511D01*
X80125295Y-121477059D01*
X80125306Y-121477059D01*
X80290872Y-121460752D01*
X80503312Y-121396309D01*
X80699098Y-121291659D01*
X80870706Y-121150824D01*
X80906000Y-121107818D01*
X81212906Y-120800912D01*
X81595729Y-120877060D01*
X82044271Y-120877060D01*
X82484194Y-120789554D01*
X82898593Y-120617905D01*
X83271541Y-120368708D01*
X83588708Y-120051541D01*
X83837905Y-119678593D01*
X84009554Y-119264194D01*
X84097060Y-118824271D01*
X84097060Y-118375729D01*
X84009554Y-117935806D01*
X83837905Y-117521407D01*
X83588708Y-117148459D01*
X83271541Y-116831292D01*
X82898593Y-116582095D01*
X82484194Y-116410446D01*
X82044271Y-116322940D01*
X81595729Y-116322940D01*
X81155806Y-116410446D01*
X80741407Y-116582095D01*
X80368459Y-116831292D01*
X80051292Y-117148459D01*
X79802095Y-117521407D01*
X79630446Y-117935806D01*
X79542940Y-118375729D01*
X79542940Y-118824271D01*
X79619088Y-119207094D01*
X79603123Y-119223059D01*
X77645298Y-119223059D01*
X77589941Y-119217607D01*
X77534584Y-119223059D01*
X77534576Y-119223059D01*
X77369010Y-119239366D01*
X77156570Y-119303809D01*
X76960784Y-119408459D01*
X76832180Y-119514001D01*
X76832177Y-119514004D01*
X76789176Y-119549294D01*
X76753886Y-119592295D01*
X72682241Y-123663941D01*
X72639235Y-123699235D01*
X72498400Y-123870843D01*
X72393750Y-124066630D01*
X72329307Y-124279070D01*
X72313000Y-124444636D01*
X72313000Y-124444646D01*
X72307548Y-124500000D01*
X72313000Y-124555355D01*
X72313000Y-125443583D01*
X72292804Y-125405798D01*
X72226948Y-125325552D01*
X72146702Y-125259696D01*
X72055150Y-125210761D01*
X71955810Y-125180626D01*
X71852500Y-125170451D01*
X69947500Y-125170451D01*
X69844190Y-125180626D01*
X69744850Y-125210761D01*
X69653298Y-125259696D01*
X69573052Y-125325552D01*
X69507196Y-125405798D01*
X69458261Y-125497350D01*
X69428126Y-125596690D01*
X69417951Y-125700000D01*
X65903639Y-125700000D01*
X65848660Y-125629915D01*
X65628630Y-125441078D01*
X65375987Y-125298796D01*
X65100441Y-125208536D01*
X65083264Y-125204415D01*
X64853000Y-125306728D01*
X64707000Y-125306728D01*
X64476736Y-125204415D01*
X64459559Y-125208536D01*
X64184013Y-125298796D01*
X63931370Y-125441078D01*
X63711340Y-125629915D01*
X63532378Y-125858049D01*
X63513191Y-125895929D01*
X63476111Y-125826557D01*
X63367000Y-125693605D01*
X63367000Y-124966818D01*
X73856760Y-114477059D01*
X80014587Y-114477059D01*
X80069941Y-114482511D01*
X80125295Y-114477059D01*
X80125306Y-114477059D01*
X80290872Y-114460752D01*
X80503312Y-114396309D01*
X80699098Y-114291659D01*
X80870706Y-114150824D01*
X80906000Y-114107818D01*
X81212906Y-113800912D01*
X81595729Y-113877060D01*
X82044271Y-113877060D01*
X82484194Y-113789554D01*
X82898593Y-113617905D01*
X83271541Y-113368708D01*
X83588708Y-113051541D01*
X83837905Y-112678593D01*
X84009554Y-112264194D01*
X84097060Y-111824271D01*
X84097060Y-111375729D01*
X84009554Y-110935806D01*
X83837905Y-110521407D01*
X83588708Y-110148459D01*
X83271541Y-109831292D01*
X82898593Y-109582095D01*
X82484194Y-109410446D01*
X82044271Y-109322940D01*
X81595729Y-109322940D01*
X81155806Y-109410446D01*
X80741407Y-109582095D01*
X80368459Y-109831292D01*
X80051292Y-110148459D01*
X79802095Y-110521407D01*
X79630446Y-110935806D01*
X79542940Y-111375729D01*
X79542940Y-111824271D01*
X79619088Y-112207094D01*
X79603123Y-112223059D01*
X74119716Y-112223059D01*
X74518564Y-112057851D01*
X74891503Y-111808661D01*
X75208661Y-111491503D01*
X75457851Y-111118564D01*
X75629496Y-110704176D01*
X75717000Y-110264265D01*
X75717000Y-109815735D01*
X75629496Y-109375824D01*
X75457851Y-108961436D01*
X75208661Y-108588497D01*
X74891503Y-108271339D01*
X74518564Y-108022149D01*
X74104176Y-107850504D01*
X73664265Y-107763000D01*
X73215735Y-107763000D01*
X72775824Y-107850504D01*
X72361436Y-108022149D01*
X71988497Y-108271339D01*
X71671339Y-108588497D01*
X71422149Y-108961436D01*
X71250504Y-109375824D01*
X71163000Y-109815735D01*
X71163000Y-110264265D01*
X71250504Y-110704176D01*
X71422149Y-111118564D01*
X71671339Y-111491503D01*
X71988497Y-111808661D01*
X72361436Y-112057851D01*
X72775824Y-112229496D01*
X73032945Y-112280641D01*
X72956570Y-112303809D01*
X72760784Y-112408459D01*
X72632180Y-112514001D01*
X72632177Y-112514004D01*
X72589176Y-112549294D01*
X72553886Y-112592295D01*
X61482242Y-123663940D01*
X61439235Y-123699235D01*
X61298400Y-123870843D01*
X61193750Y-124066630D01*
X61129307Y-124279070D01*
X61113000Y-124444636D01*
X61113000Y-124444646D01*
X61107548Y-124500000D01*
X61113000Y-124555355D01*
X61113000Y-125443583D01*
X61092804Y-125405798D01*
X61026948Y-125325552D01*
X60946702Y-125259696D01*
X60855150Y-125210761D01*
X60755810Y-125180626D01*
X60652500Y-125170451D01*
X58747500Y-125170451D01*
X58644190Y-125180626D01*
X58544850Y-125210761D01*
X58453298Y-125259696D01*
X58373052Y-125325552D01*
X58307196Y-125405798D01*
X58258261Y-125497350D01*
X58228126Y-125596690D01*
X58217951Y-125700000D01*
X55470878Y-125700000D01*
X55384923Y-125492488D01*
X55152149Y-125144116D01*
X54855884Y-124847851D01*
X54507512Y-124615077D01*
X54120423Y-124454739D01*
X53709491Y-124373000D01*
X53290509Y-124373000D01*
X52879577Y-124454739D01*
X52492488Y-124615077D01*
X52144116Y-124847851D01*
X51847851Y-125144116D01*
X51615077Y-125492488D01*
X51454739Y-125879577D01*
X51373000Y-126290509D01*
X50552000Y-126290509D01*
X50552000Y-103290509D01*
X51373000Y-103290509D01*
X51373000Y-103709491D01*
X51454739Y-104120423D01*
X51615077Y-104507512D01*
X51847851Y-104855884D01*
X52144116Y-105152149D01*
X52492488Y-105384923D01*
X52879577Y-105545261D01*
X53290509Y-105627000D01*
X53709491Y-105627000D01*
X54120423Y-105545261D01*
X54507512Y-105384923D01*
X54855884Y-105152149D01*
X55152149Y-104855884D01*
X55384923Y-104507512D01*
X55545261Y-104120423D01*
X55627000Y-103709491D01*
X55627000Y-103290509D01*
X55545261Y-102879577D01*
X55384923Y-102492488D01*
X55152149Y-102144116D01*
X54855884Y-101847851D01*
X54507512Y-101615077D01*
X54120423Y-101454739D01*
X53709491Y-101373000D01*
X53290509Y-101373000D01*
X52879577Y-101454739D01*
X52492488Y-101615077D01*
X52144116Y-101847851D01*
X51847851Y-102144116D01*
X51615077Y-102492488D01*
X51454739Y-102879577D01*
X51373000Y-103290509D01*
X50552000Y-103290509D01*
X50552000Y-102026992D01*
X50582173Y-101719263D01*
X50663704Y-101449221D01*
X50796134Y-101200155D01*
X50974420Y-100981556D01*
X51191772Y-100801746D01*
X51439900Y-100667584D01*
X51709374Y-100584168D01*
X52015432Y-100552000D01*
X58382181Y-100552000D01*
X56900237Y-102033945D01*
G37*
X56900237Y-102033945D02*
X56857236Y-102069235D01*
X56821946Y-102112236D01*
X56821942Y-102112240D01*
X56716400Y-102240844D01*
X56611750Y-102436630D01*
X56588136Y-102514477D01*
X56547308Y-102649069D01*
X56538802Y-102735435D01*
X56525548Y-102870000D01*
X56531001Y-102925364D01*
X56531000Y-104693347D01*
X54134382Y-107120451D01*
X52650000Y-107120451D01*
X52546690Y-107130626D01*
X52447350Y-107160761D01*
X52355798Y-107209696D01*
X52275552Y-107275552D01*
X52209696Y-107355798D01*
X52160761Y-107447350D01*
X52130626Y-107546690D01*
X52120451Y-107650000D01*
X52120451Y-109350000D01*
X52130626Y-109453310D01*
X52160761Y-109552650D01*
X52209696Y-109644202D01*
X52275552Y-109724448D01*
X52355798Y-109790304D01*
X52447350Y-109839239D01*
X52546690Y-109869374D01*
X52650000Y-109879549D01*
X52766642Y-109879549D01*
X52719287Y-109905705D01*
X52512998Y-110079810D01*
X52344639Y-110290814D01*
X52220680Y-110530609D01*
X52153285Y-110752791D01*
X52256892Y-110967000D01*
X53427000Y-110967000D01*
X53427000Y-110947000D01*
X53573000Y-110947000D01*
X53573000Y-110967000D01*
X53593000Y-110967000D01*
X53593000Y-111113000D01*
X53573000Y-111113000D01*
X53573000Y-111133000D01*
X53427000Y-111133000D01*
X53427000Y-111113000D01*
X52256892Y-111113000D01*
X52153285Y-111327209D01*
X52220680Y-111549391D01*
X52344639Y-111789186D01*
X52471167Y-111947764D01*
X51886617Y-112532315D01*
X51861735Y-112552735D01*
X51780258Y-112652016D01*
X51737332Y-112732326D01*
X51719716Y-112765283D01*
X51682434Y-112888185D01*
X51669845Y-113015999D01*
X51672999Y-113048021D01*
X51673000Y-117452967D01*
X51669845Y-117484999D01*
X51682434Y-117612813D01*
X51719716Y-117735715D01*
X51719717Y-117735716D01*
X51780259Y-117848983D01*
X51861736Y-117948263D01*
X51886613Y-117968679D01*
X52176023Y-118258089D01*
X52175917Y-118258344D01*
X52123000Y-118524377D01*
X52123000Y-118795623D01*
X52175917Y-119061656D01*
X52279718Y-119312254D01*
X52430414Y-119537787D01*
X52622213Y-119729586D01*
X52847746Y-119880282D01*
X52967776Y-119930000D01*
X52847746Y-119979718D01*
X52622213Y-120130414D01*
X52430414Y-120322213D01*
X52279718Y-120547746D01*
X52175917Y-120798344D01*
X52123000Y-121064377D01*
X52123000Y-121335623D01*
X52175917Y-121601656D01*
X52279718Y-121852254D01*
X52430414Y-122077787D01*
X52622213Y-122269586D01*
X52847746Y-122420282D01*
X53098344Y-122524083D01*
X53364377Y-122577000D01*
X53635623Y-122577000D01*
X53901656Y-122524083D01*
X54152254Y-122420282D01*
X54377787Y-122269586D01*
X54569586Y-122077787D01*
X54720282Y-121852254D01*
X54824083Y-121601656D01*
X54877000Y-121335623D01*
X54877000Y-121064377D01*
X54824083Y-120798344D01*
X54823977Y-120798089D01*
X56006398Y-119615669D01*
X56031274Y-119595254D01*
X56112751Y-119495974D01*
X56173293Y-119382707D01*
X56208913Y-119265283D01*
X56210575Y-119259805D01*
X56223164Y-119131990D01*
X56220010Y-119099968D01*
X56220010Y-113232466D01*
X60044011Y-109408465D01*
X59963000Y-109815735D01*
X59963000Y-110264265D01*
X60050504Y-110704176D01*
X60222149Y-111118564D01*
X60471339Y-111491503D01*
X60788497Y-111808661D01*
X61161436Y-112057851D01*
X61575824Y-112229496D01*
X62015735Y-112317000D01*
X62464265Y-112317000D01*
X62904176Y-112229496D01*
X63318564Y-112057851D01*
X63691503Y-111808661D01*
X64008661Y-111491503D01*
X64257851Y-111118564D01*
X64429496Y-110704176D01*
X64517000Y-110264265D01*
X64517000Y-109815735D01*
X64429496Y-109375824D01*
X64257851Y-108961436D01*
X64008661Y-108588497D01*
X63691503Y-108271339D01*
X63318564Y-108022149D01*
X62904176Y-107850504D01*
X62464265Y-107763000D01*
X62015735Y-107763000D01*
X61608466Y-107844011D01*
X62818272Y-106634205D01*
X73385773Y-106634205D01*
X73417795Y-106637359D01*
X73449817Y-106634205D01*
X73545609Y-106624770D01*
X73668512Y-106587488D01*
X73781779Y-106526946D01*
X73881059Y-106445469D01*
X73901480Y-106420586D01*
X75238388Y-105083679D01*
X75263264Y-105063264D01*
X75344741Y-104963984D01*
X75394866Y-104870206D01*
X75403310Y-104869374D01*
X75502650Y-104839239D01*
X75594202Y-104790304D01*
X75674448Y-104724448D01*
X75740304Y-104644202D01*
X75789239Y-104552650D01*
X75819374Y-104453310D01*
X75829549Y-104350000D01*
X75829549Y-102850000D01*
X75819374Y-102746690D01*
X75789239Y-102647350D01*
X75740304Y-102555798D01*
X75674448Y-102475552D01*
X75594202Y-102409696D01*
X75502650Y-102360761D01*
X75403310Y-102330626D01*
X75300000Y-102320451D01*
X74300000Y-102320451D01*
X74196690Y-102330626D01*
X74150000Y-102344790D01*
X74103310Y-102330626D01*
X74000000Y-102320451D01*
X73000000Y-102320451D01*
X72896690Y-102330626D01*
X72850000Y-102344790D01*
X72803310Y-102330626D01*
X72700000Y-102320451D01*
X71700000Y-102320451D01*
X71596690Y-102330626D01*
X71497350Y-102360761D01*
X71405798Y-102409696D01*
X71325552Y-102475552D01*
X71259696Y-102555798D01*
X71210761Y-102647350D01*
X71180626Y-102746690D01*
X71170451Y-102850000D01*
X71170451Y-104350000D01*
X71180626Y-104453310D01*
X71210761Y-104552650D01*
X71247319Y-104621047D01*
X71107661Y-104758000D01*
X64533565Y-104758000D01*
X64574448Y-104724448D01*
X64640304Y-104644202D01*
X64689239Y-104552650D01*
X64719374Y-104453310D01*
X64729549Y-104350000D01*
X64729549Y-102850000D01*
X64719374Y-102746690D01*
X64689239Y-102647350D01*
X64640304Y-102555798D01*
X64574448Y-102475552D01*
X64494202Y-102409696D01*
X64402650Y-102360761D01*
X64303310Y-102330626D01*
X64285839Y-102328905D01*
X64285528Y-102328324D01*
X64268351Y-102290112D01*
X64255330Y-102271827D01*
X64244741Y-102252016D01*
X64218147Y-102219611D01*
X64193852Y-102185494D01*
X64177516Y-102170102D01*
X64163264Y-102152736D01*
X64130860Y-102126143D01*
X64123795Y-102119486D01*
X64106135Y-102105851D01*
X64063984Y-102071259D01*
X64055357Y-102066648D01*
X63923699Y-101965000D01*
X75977316Y-101965000D01*
X84620391Y-110869536D01*
X84620391Y-113350060D01*
X84630566Y-113453370D01*
X84660701Y-113552710D01*
X84709636Y-113644262D01*
X84775492Y-113724508D01*
X84855738Y-113790364D01*
X84947290Y-113839299D01*
X85046630Y-113869434D01*
X85149940Y-113879609D01*
X85773000Y-113879609D01*
X85773001Y-116320391D01*
X85149940Y-116320391D01*
X85046630Y-116330566D01*
X84947290Y-116360701D01*
X84855738Y-116409636D01*
X84775492Y-116475492D01*
X84709636Y-116555738D01*
X84660701Y-116647290D01*
X84630566Y-116746630D01*
X84620391Y-116849940D01*
X84620391Y-120350060D01*
X84630566Y-120453370D01*
X84660701Y-120552710D01*
X84709636Y-120644262D01*
X84775492Y-120724508D01*
X84855738Y-120790364D01*
X84947290Y-120839299D01*
X85046630Y-120869434D01*
X85149940Y-120879609D01*
X88650060Y-120879609D01*
X88753370Y-120869434D01*
X88852710Y-120839299D01*
X88944262Y-120790364D01*
X89024508Y-120724508D01*
X89090364Y-120644262D01*
X89139299Y-120552710D01*
X89169434Y-120453370D01*
X89179609Y-120350060D01*
X89179609Y-116849940D01*
X89169434Y-116746630D01*
X89139299Y-116647290D01*
X89090364Y-116555738D01*
X89024508Y-116475492D01*
X88944262Y-116409636D01*
X88852710Y-116360701D01*
X88753370Y-116330566D01*
X88650060Y-116320391D01*
X88027000Y-116320391D01*
X88027000Y-113879609D01*
X88650060Y-113879609D01*
X88753370Y-113869434D01*
X88852710Y-113839299D01*
X88944262Y-113790364D01*
X89024508Y-113724508D01*
X89090364Y-113644262D01*
X89139299Y-113552710D01*
X89169434Y-113453370D01*
X89179609Y-113350060D01*
X89179609Y-109849940D01*
X89169434Y-109746630D01*
X89139299Y-109647290D01*
X89090364Y-109555738D01*
X89024508Y-109475492D01*
X88944262Y-109409636D01*
X88852710Y-109360701D01*
X88753370Y-109330566D01*
X88650060Y-109320391D01*
X86257920Y-109320391D01*
X80405091Y-103290509D01*
X84373000Y-103290509D01*
X84373000Y-103709491D01*
X84454739Y-104120423D01*
X84615077Y-104507512D01*
X84847851Y-104855884D01*
X85144116Y-105152149D01*
X85492488Y-105384923D01*
X85879577Y-105545261D01*
X86290509Y-105627000D01*
X86709491Y-105627000D01*
X87120423Y-105545261D01*
X87507512Y-105384923D01*
X87855884Y-105152149D01*
X88152149Y-104855884D01*
X88384923Y-104507512D01*
X88545261Y-104120423D01*
X88627000Y-103709491D01*
X88627000Y-103290509D01*
X88545261Y-102879577D01*
X88384923Y-102492488D01*
X88152149Y-102144116D01*
X87855884Y-101847851D01*
X87507512Y-101615077D01*
X87120423Y-101454739D01*
X86709491Y-101373000D01*
X86290509Y-101373000D01*
X85879577Y-101454739D01*
X85492488Y-101615077D01*
X85144116Y-101847851D01*
X84847851Y-102144116D01*
X84615077Y-102492488D01*
X84454739Y-102879577D01*
X84373000Y-103290509D01*
X80405091Y-103290509D01*
X77746991Y-100552000D01*
X87973008Y-100552000D01*
X88280737Y-100582173D01*
X88550779Y-100663704D01*
X88799845Y-100796134D01*
X89018444Y-100974420D01*
X89198254Y-101191772D01*
X89332416Y-101439900D01*
X89415832Y-101709374D01*
X89448000Y-102015432D01*
X89448001Y-127972997D01*
X89417827Y-128280733D01*
X89336297Y-128550778D01*
X89203863Y-128799848D01*
X89025582Y-129018442D01*
X88808228Y-129198254D01*
X88560100Y-129332416D01*
X88290626Y-129415832D01*
X87984568Y-129448000D01*
X52026992Y-129448000D01*
X51719267Y-129417827D01*
X51449222Y-129336297D01*
X51200152Y-129203863D01*
X50981558Y-129025582D01*
X50801746Y-128808228D01*
X50667584Y-128560100D01*
X50584168Y-128290626D01*
X50552000Y-127984568D01*
X50552000Y-126290509D01*
X51373000Y-126290509D01*
X51373000Y-126709491D01*
X51454739Y-127120423D01*
X51615077Y-127507512D01*
X51847851Y-127855884D01*
X52144116Y-128152149D01*
X52492488Y-128384923D01*
X52879577Y-128545261D01*
X53290509Y-128627000D01*
X53709491Y-128627000D01*
X54120423Y-128545261D01*
X54507512Y-128384923D01*
X54855884Y-128152149D01*
X55152149Y-127855884D01*
X55384923Y-127507512D01*
X55545261Y-127120423D01*
X55627000Y-126709491D01*
X55627000Y-126290509D01*
X55545261Y-125879577D01*
X55470878Y-125700000D01*
X58217951Y-125700000D01*
X58217951Y-127700000D01*
X58228126Y-127803310D01*
X58258261Y-127902650D01*
X58307196Y-127994202D01*
X58373052Y-128074448D01*
X58453298Y-128140304D01*
X58544850Y-128189239D01*
X58644190Y-128219374D01*
X58747500Y-128229549D01*
X60652500Y-128229549D01*
X60755810Y-128219374D01*
X60855150Y-128189239D01*
X60946702Y-128140304D01*
X61026948Y-128074448D01*
X61092804Y-127994202D01*
X61141739Y-127902650D01*
X61171874Y-127803310D01*
X61174088Y-127780831D01*
X61188774Y-127798726D01*
X61414058Y-127983611D01*
X61671082Y-128120993D01*
X61949968Y-128205592D01*
X62240000Y-128234158D01*
X62530033Y-128205592D01*
X62808919Y-128120993D01*
X63065943Y-127983611D01*
X63291226Y-127798726D01*
X63476111Y-127573442D01*
X63513191Y-127504070D01*
X63532378Y-127541951D01*
X63711340Y-127770085D01*
X63931370Y-127958922D01*
X64184013Y-128101204D01*
X64459559Y-128191464D01*
X64476736Y-128195585D01*
X64707000Y-128093272D01*
X64707000Y-126773000D01*
X64853000Y-126773000D01*
X64853000Y-128093272D01*
X65083264Y-128195585D01*
X65100441Y-128191464D01*
X65375987Y-128101204D01*
X65628630Y-127958922D01*
X65848660Y-127770085D01*
X66027622Y-127541951D01*
X66158639Y-127283287D01*
X66236676Y-127004033D01*
X66127122Y-126773000D01*
X64853000Y-126773000D01*
X64707000Y-126773000D01*
X64687000Y-126773000D01*
X64687000Y-126627000D01*
X64707000Y-126627000D01*
X64707000Y-125306728D01*
X64853000Y-125306728D01*
X64853000Y-126627000D01*
X66127122Y-126627000D01*
X66236676Y-126395967D01*
X66158639Y-126116713D01*
X66027622Y-125858049D01*
X65903639Y-125700000D01*
X69417951Y-125700000D01*
X69417951Y-127700000D01*
X69428126Y-127803310D01*
X69458261Y-127902650D01*
X69507196Y-127994202D01*
X69573052Y-128074448D01*
X69653298Y-128140304D01*
X69744850Y-128189239D01*
X69844190Y-128219374D01*
X69947500Y-128229549D01*
X71852500Y-128229549D01*
X71955810Y-128219374D01*
X72055150Y-128189239D01*
X72146702Y-128140304D01*
X72226948Y-128074448D01*
X72292804Y-127994202D01*
X72341739Y-127902650D01*
X72371874Y-127803310D01*
X72374088Y-127780831D01*
X72388774Y-127798726D01*
X72614058Y-127983611D01*
X72871082Y-128120993D01*
X73149968Y-128205592D01*
X73440000Y-128234158D01*
X73730033Y-128205592D01*
X74008919Y-128120993D01*
X74265943Y-127983611D01*
X74491226Y-127798726D01*
X74676111Y-127573442D01*
X74713191Y-127504070D01*
X74732378Y-127541951D01*
X74911340Y-127770085D01*
X75131370Y-127958922D01*
X75384013Y-128101204D01*
X75659559Y-128191464D01*
X75676736Y-128195585D01*
X75907000Y-128093272D01*
X75907000Y-126773000D01*
X76053000Y-126773000D01*
X76053000Y-128093272D01*
X76283264Y-128195585D01*
X76300441Y-128191464D01*
X76575987Y-128101204D01*
X76828630Y-127958922D01*
X77048660Y-127770085D01*
X77227622Y-127541951D01*
X77358639Y-127283287D01*
X77436676Y-127004033D01*
X77327122Y-126773000D01*
X76053000Y-126773000D01*
X75907000Y-126773000D01*
X75887000Y-126773000D01*
X75887000Y-126627000D01*
X75907000Y-126627000D01*
X75907000Y-125306728D01*
X76053000Y-125306728D01*
X76053000Y-126627000D01*
X77327122Y-126627000D01*
X77436676Y-126395967D01*
X77407206Y-126290509D01*
X84373000Y-126290509D01*
X84373000Y-126709491D01*
X84454739Y-127120423D01*
X84615077Y-127507512D01*
X84847851Y-127855884D01*
X85144116Y-128152149D01*
X85492488Y-128384923D01*
X85879577Y-128545261D01*
X86290509Y-128627000D01*
X86709491Y-128627000D01*
X87120423Y-128545261D01*
X87507512Y-128384923D01*
X87855884Y-128152149D01*
X88152149Y-127855884D01*
X88384923Y-127507512D01*
X88545261Y-127120423D01*
X88627000Y-126709491D01*
X88627000Y-126290509D01*
X88545261Y-125879577D01*
X88384923Y-125492488D01*
X88152149Y-125144116D01*
X87855884Y-124847851D01*
X87507512Y-124615077D01*
X87120423Y-124454739D01*
X86709491Y-124373000D01*
X86290509Y-124373000D01*
X85879577Y-124454739D01*
X85492488Y-124615077D01*
X85144116Y-124847851D01*
X84847851Y-125144116D01*
X84615077Y-125492488D01*
X84454739Y-125879577D01*
X84373000Y-126290509D01*
X77407206Y-126290509D01*
X77358639Y-126116713D01*
X77227622Y-125858049D01*
X77048660Y-125629915D01*
X76828630Y-125441078D01*
X76575987Y-125298796D01*
X76300441Y-125208536D01*
X76283264Y-125204415D01*
X76053000Y-125306728D01*
X75907000Y-125306728D01*
X75676736Y-125204415D01*
X75659559Y-125208536D01*
X75384013Y-125298796D01*
X75131370Y-125441078D01*
X74911340Y-125629915D01*
X74732378Y-125858049D01*
X74713191Y-125895929D01*
X74676111Y-125826557D01*
X74567000Y-125693605D01*
X74567000Y-124966818D01*
X78056760Y-121477059D01*
X80014587Y-121477059D01*
X80069941Y-121482511D01*
X80125295Y-121477059D01*
X80125306Y-121477059D01*
X80290872Y-121460752D01*
X80503312Y-121396309D01*
X80699098Y-121291659D01*
X80870706Y-121150824D01*
X80906000Y-121107818D01*
X81212906Y-120800912D01*
X81595729Y-120877060D01*
X82044271Y-120877060D01*
X82484194Y-120789554D01*
X82898593Y-120617905D01*
X83271541Y-120368708D01*
X83588708Y-120051541D01*
X83837905Y-119678593D01*
X84009554Y-119264194D01*
X84097060Y-118824271D01*
X84097060Y-118375729D01*
X84009554Y-117935806D01*
X83837905Y-117521407D01*
X83588708Y-117148459D01*
X83271541Y-116831292D01*
X82898593Y-116582095D01*
X82484194Y-116410446D01*
X82044271Y-116322940D01*
X81595729Y-116322940D01*
X81155806Y-116410446D01*
X80741407Y-116582095D01*
X80368459Y-116831292D01*
X80051292Y-117148459D01*
X79802095Y-117521407D01*
X79630446Y-117935806D01*
X79542940Y-118375729D01*
X79542940Y-118824271D01*
X79619088Y-119207094D01*
X79603123Y-119223059D01*
X77645298Y-119223059D01*
X77589941Y-119217607D01*
X77534584Y-119223059D01*
X77534576Y-119223059D01*
X77369010Y-119239366D01*
X77156570Y-119303809D01*
X76960784Y-119408459D01*
X76832180Y-119514001D01*
X76832177Y-119514004D01*
X76789176Y-119549294D01*
X76753886Y-119592295D01*
X72682241Y-123663941D01*
X72639235Y-123699235D01*
X72498400Y-123870843D01*
X72393750Y-124066630D01*
X72329307Y-124279070D01*
X72313000Y-124444636D01*
X72313000Y-124444646D01*
X72307548Y-124500000D01*
X72313000Y-124555355D01*
X72313000Y-125443583D01*
X72292804Y-125405798D01*
X72226948Y-125325552D01*
X72146702Y-125259696D01*
X72055150Y-125210761D01*
X71955810Y-125180626D01*
X71852500Y-125170451D01*
X69947500Y-125170451D01*
X69844190Y-125180626D01*
X69744850Y-125210761D01*
X69653298Y-125259696D01*
X69573052Y-125325552D01*
X69507196Y-125405798D01*
X69458261Y-125497350D01*
X69428126Y-125596690D01*
X69417951Y-125700000D01*
X65903639Y-125700000D01*
X65848660Y-125629915D01*
X65628630Y-125441078D01*
X65375987Y-125298796D01*
X65100441Y-125208536D01*
X65083264Y-125204415D01*
X64853000Y-125306728D01*
X64707000Y-125306728D01*
X64476736Y-125204415D01*
X64459559Y-125208536D01*
X64184013Y-125298796D01*
X63931370Y-125441078D01*
X63711340Y-125629915D01*
X63532378Y-125858049D01*
X63513191Y-125895929D01*
X63476111Y-125826557D01*
X63367000Y-125693605D01*
X63367000Y-124966818D01*
X73856760Y-114477059D01*
X80014587Y-114477059D01*
X80069941Y-114482511D01*
X80125295Y-114477059D01*
X80125306Y-114477059D01*
X80290872Y-114460752D01*
X80503312Y-114396309D01*
X80699098Y-114291659D01*
X80870706Y-114150824D01*
X80906000Y-114107818D01*
X81212906Y-113800912D01*
X81595729Y-113877060D01*
X82044271Y-113877060D01*
X82484194Y-113789554D01*
X82898593Y-113617905D01*
X83271541Y-113368708D01*
X83588708Y-113051541D01*
X83837905Y-112678593D01*
X84009554Y-112264194D01*
X84097060Y-111824271D01*
X84097060Y-111375729D01*
X84009554Y-110935806D01*
X83837905Y-110521407D01*
X83588708Y-110148459D01*
X83271541Y-109831292D01*
X82898593Y-109582095D01*
X82484194Y-109410446D01*
X82044271Y-109322940D01*
X81595729Y-109322940D01*
X81155806Y-109410446D01*
X80741407Y-109582095D01*
X80368459Y-109831292D01*
X80051292Y-110148459D01*
X79802095Y-110521407D01*
X79630446Y-110935806D01*
X79542940Y-111375729D01*
X79542940Y-111824271D01*
X79619088Y-112207094D01*
X79603123Y-112223059D01*
X74119716Y-112223059D01*
X74518564Y-112057851D01*
X74891503Y-111808661D01*
X75208661Y-111491503D01*
X75457851Y-111118564D01*
X75629496Y-110704176D01*
X75717000Y-110264265D01*
X75717000Y-109815735D01*
X75629496Y-109375824D01*
X75457851Y-108961436D01*
X75208661Y-108588497D01*
X74891503Y-108271339D01*
X74518564Y-108022149D01*
X74104176Y-107850504D01*
X73664265Y-107763000D01*
X73215735Y-107763000D01*
X72775824Y-107850504D01*
X72361436Y-108022149D01*
X71988497Y-108271339D01*
X71671339Y-108588497D01*
X71422149Y-108961436D01*
X71250504Y-109375824D01*
X71163000Y-109815735D01*
X71163000Y-110264265D01*
X71250504Y-110704176D01*
X71422149Y-111118564D01*
X71671339Y-111491503D01*
X71988497Y-111808661D01*
X72361436Y-112057851D01*
X72775824Y-112229496D01*
X73032945Y-112280641D01*
X72956570Y-112303809D01*
X72760784Y-112408459D01*
X72632180Y-112514001D01*
X72632177Y-112514004D01*
X72589176Y-112549294D01*
X72553886Y-112592295D01*
X61482242Y-123663940D01*
X61439235Y-123699235D01*
X61298400Y-123870843D01*
X61193750Y-124066630D01*
X61129307Y-124279070D01*
X61113000Y-124444636D01*
X61113000Y-124444646D01*
X61107548Y-124500000D01*
X61113000Y-124555355D01*
X61113000Y-125443583D01*
X61092804Y-125405798D01*
X61026948Y-125325552D01*
X60946702Y-125259696D01*
X60855150Y-125210761D01*
X60755810Y-125180626D01*
X60652500Y-125170451D01*
X58747500Y-125170451D01*
X58644190Y-125180626D01*
X58544850Y-125210761D01*
X58453298Y-125259696D01*
X58373052Y-125325552D01*
X58307196Y-125405798D01*
X58258261Y-125497350D01*
X58228126Y-125596690D01*
X58217951Y-125700000D01*
X55470878Y-125700000D01*
X55384923Y-125492488D01*
X55152149Y-125144116D01*
X54855884Y-124847851D01*
X54507512Y-124615077D01*
X54120423Y-124454739D01*
X53709491Y-124373000D01*
X53290509Y-124373000D01*
X52879577Y-124454739D01*
X52492488Y-124615077D01*
X52144116Y-124847851D01*
X51847851Y-125144116D01*
X51615077Y-125492488D01*
X51454739Y-125879577D01*
X51373000Y-126290509D01*
X50552000Y-126290509D01*
X50552000Y-103290509D01*
X51373000Y-103290509D01*
X51373000Y-103709491D01*
X51454739Y-104120423D01*
X51615077Y-104507512D01*
X51847851Y-104855884D01*
X52144116Y-105152149D01*
X52492488Y-105384923D01*
X52879577Y-105545261D01*
X53290509Y-105627000D01*
X53709491Y-105627000D01*
X54120423Y-105545261D01*
X54507512Y-105384923D01*
X54855884Y-105152149D01*
X55152149Y-104855884D01*
X55384923Y-104507512D01*
X55545261Y-104120423D01*
X55627000Y-103709491D01*
X55627000Y-103290509D01*
X55545261Y-102879577D01*
X55384923Y-102492488D01*
X55152149Y-102144116D01*
X54855884Y-101847851D01*
X54507512Y-101615077D01*
X54120423Y-101454739D01*
X53709491Y-101373000D01*
X53290509Y-101373000D01*
X52879577Y-101454739D01*
X52492488Y-101615077D01*
X52144116Y-101847851D01*
X51847851Y-102144116D01*
X51615077Y-102492488D01*
X51454739Y-102879577D01*
X51373000Y-103290509D01*
X50552000Y-103290509D01*
X50552000Y-102026992D01*
X50582173Y-101719263D01*
X50663704Y-101449221D01*
X50796134Y-101200155D01*
X50974420Y-100981556D01*
X51191772Y-100801746D01*
X51439900Y-100667584D01*
X51709374Y-100584168D01*
X52015432Y-100552000D01*
X58382181Y-100552000D01*
X56900237Y-102033945D01*
M02*
