M48
; DRILL file {KiCad (5.1.5)-3} date 12/04/2020 00:59:33
; FORMAT={-:-/ absolute / metric / decimal}
; #@! TF.CreationDate,2020-04-12T00:59:33+02:00
; #@! TF.GenerationSoftware,Kicad,Pcbnew,(5.1.5)-3
FMAT,2
METRIC
T1C0.400
T2C1.000
T3C1.100
T4C1.501
T5C3.200
T6C3.500
%
G90
G05
T1
X60.96Y-113.0
X60.96Y-115.0
X62.382Y-103.607
X63.5Y-113.0
X63.5Y-115.0
X66.04Y-109.0
X66.04Y-111.0
X73.508Y-103.607
X75.0Y-107.188
X75.184Y-115.5
X75.184Y-117.0
X77.216Y-107.188
X77.216Y-109.0
X77.216Y-111.0
X77.216Y-115.5
T2
X53.5Y-108.5
X53.5Y-111.04
X53.5Y-113.58
X53.5Y-116.12
X53.5Y-118.66
X53.5Y-121.2
T3
X70.9Y-126.7
X73.44Y-126.7
X75.98Y-126.7
X59.7Y-126.7
X62.24Y-126.7
X64.78Y-126.7
T4
X81.82Y-111.6
X86.9Y-111.6
X81.82Y-118.6
X86.9Y-118.6
T5
X53.5Y-126.5
X53.5Y-103.5
X86.5Y-103.5
X86.5Y-126.5
T6
X73.44Y-110.04
X62.24Y-110.04
T0
M30
