G04 #@! TF.GenerationSoftware,KiCad,Pcbnew,(5.1.5)-3*
G04 #@! TF.CreationDate,2020-04-12T00:57:34+02:00*
G04 #@! TF.ProjectId,schinkli_pumps,73636869-6e6b-46c6-995f-70756d70732e,rev?*
G04 #@! TF.SameCoordinates,Original*
G04 #@! TF.FileFunction,Legend,Top*
G04 #@! TF.FilePolarity,Positive*
%FSLAX46Y46*%
G04 Gerber Fmt 4.6, Leading zero omitted, Abs format (unit mm)*
G04 Created by KiCad (PCBNEW (5.1.5)-3) date 2020-04-12 00:57:34*
%MOMM*%
%LPD*%
G04 APERTURE LIST*
%ADD10C,0.120000*%
%ADD11C,0.150000*%
G04 APERTURE END LIST*
D10*
X79502000Y-109474000D02*
X89154000Y-109474000D01*
X79502000Y-113792000D02*
X79502000Y-109474000D01*
X89154000Y-113792000D02*
X79502000Y-113792000D01*
X89154000Y-109474000D02*
X89154000Y-113792000D01*
X89154000Y-120904000D02*
X89154000Y-116332000D01*
X79502000Y-120904000D02*
X89154000Y-120904000D01*
X79502000Y-116332000D02*
X79502000Y-120904000D01*
X89154000Y-116332000D02*
X79502000Y-116332000D01*
D11*
X75969904Y-104084380D02*
X75969904Y-103084380D01*
X76208000Y-103084380D01*
X76350857Y-103132000D01*
X76446095Y-103227238D01*
X76493714Y-103322476D01*
X76541333Y-103512952D01*
X76541333Y-103655809D01*
X76493714Y-103846285D01*
X76446095Y-103941523D01*
X76350857Y-104036761D01*
X76208000Y-104084380D01*
X75969904Y-104084380D01*
X77398476Y-103417714D02*
X77398476Y-104084380D01*
X77160380Y-103036761D02*
X76922285Y-103751047D01*
X77541333Y-103751047D01*
X69365904Y-104084380D02*
X69365904Y-103084380D01*
X69604000Y-103084380D01*
X69746857Y-103132000D01*
X69842095Y-103227238D01*
X69889714Y-103322476D01*
X69937333Y-103512952D01*
X69937333Y-103655809D01*
X69889714Y-103846285D01*
X69842095Y-103941523D01*
X69746857Y-104036761D01*
X69604000Y-104084380D01*
X69365904Y-104084380D01*
X70318285Y-103179619D02*
X70365904Y-103132000D01*
X70461142Y-103084380D01*
X70699238Y-103084380D01*
X70794476Y-103132000D01*
X70842095Y-103179619D01*
X70889714Y-103274857D01*
X70889714Y-103370095D01*
X70842095Y-103512952D01*
X70270666Y-104084380D01*
X70889714Y-104084380D01*
X65047904Y-104084380D02*
X65047904Y-103084380D01*
X65286000Y-103084380D01*
X65428857Y-103132000D01*
X65524095Y-103227238D01*
X65571714Y-103322476D01*
X65619333Y-103512952D01*
X65619333Y-103655809D01*
X65571714Y-103846285D01*
X65524095Y-103941523D01*
X65428857Y-104036761D01*
X65286000Y-104084380D01*
X65047904Y-104084380D01*
X65952666Y-103084380D02*
X66571714Y-103084380D01*
X66238380Y-103465333D01*
X66381238Y-103465333D01*
X66476476Y-103512952D01*
X66524095Y-103560571D01*
X66571714Y-103655809D01*
X66571714Y-103893904D01*
X66524095Y-103989142D01*
X66476476Y-104036761D01*
X66381238Y-104084380D01*
X66095523Y-104084380D01*
X66000285Y-104036761D01*
X65952666Y-103989142D01*
X58189904Y-104084380D02*
X58189904Y-103084380D01*
X58428000Y-103084380D01*
X58570857Y-103132000D01*
X58666095Y-103227238D01*
X58713714Y-103322476D01*
X58761333Y-103512952D01*
X58761333Y-103655809D01*
X58713714Y-103846285D01*
X58666095Y-103941523D01*
X58570857Y-104036761D01*
X58428000Y-104084380D01*
X58189904Y-104084380D01*
X59713714Y-104084380D02*
X59142285Y-104084380D01*
X59428000Y-104084380D02*
X59428000Y-103084380D01*
X59332761Y-103227238D01*
X59237523Y-103322476D01*
X59142285Y-103370095D01*
D10*
X52170000Y-107170000D02*
X53500000Y-107170000D01*
X52170000Y-108500000D02*
X52170000Y-107170000D01*
X52170000Y-109770000D02*
X54830000Y-109770000D01*
X54830000Y-109770000D02*
X54830000Y-122530000D01*
X52170000Y-109770000D02*
X52170000Y-122530000D01*
X52170000Y-122530000D02*
X54830000Y-122530000D01*
X75980000Y-123010000D02*
X75980000Y-125550000D01*
X73440000Y-123010000D02*
X73440000Y-125550000D01*
X70900000Y-123010000D02*
X70900000Y-125550000D01*
X78560000Y-107120000D02*
X78560000Y-123010000D01*
X68320000Y-107120000D02*
X68320000Y-123010000D01*
X68320000Y-107120000D02*
X78560000Y-107120000D01*
X68320000Y-123010000D02*
X78560000Y-123010000D01*
X64780000Y-123010000D02*
X64780000Y-125550000D01*
X62240000Y-123010000D02*
X62240000Y-125550000D01*
X59700000Y-123010000D02*
X59700000Y-125550000D01*
X67360000Y-107120000D02*
X67360000Y-123010000D01*
X57120000Y-107120000D02*
X57120000Y-123010000D01*
X57120000Y-107120000D02*
X67360000Y-107120000D01*
X57120000Y-123010000D02*
X67360000Y-123010000D01*
X71450000Y-102600000D02*
X75550000Y-102600000D01*
X75550000Y-102600000D02*
X75550000Y-104600000D01*
X75550000Y-104600000D02*
X71450000Y-104600000D01*
X71450000Y-104600000D02*
X71450000Y-102600000D01*
X72200000Y-104800000D02*
X71900000Y-105100000D01*
X71900000Y-105100000D02*
X72500000Y-105100000D01*
X72200000Y-104800000D02*
X72500000Y-105100000D01*
X60350000Y-102600000D02*
X64450000Y-102600000D01*
X64450000Y-102600000D02*
X64450000Y-104600000D01*
X64450000Y-104600000D02*
X60350000Y-104600000D01*
X60350000Y-104600000D02*
X60350000Y-102600000D01*
X61100000Y-104800000D02*
X60800000Y-105100000D01*
X60800000Y-105100000D02*
X61400000Y-105100000D01*
X61100000Y-104800000D02*
X61400000Y-105100000D01*
D11*
X50974666Y-106640380D02*
X50974666Y-107354666D01*
X50927047Y-107497523D01*
X50831809Y-107592761D01*
X50688952Y-107640380D01*
X50593714Y-107640380D01*
X51974666Y-107640380D02*
X51403238Y-107640380D01*
X51688952Y-107640380D02*
X51688952Y-106640380D01*
X51593714Y-106783238D01*
X51498476Y-106878476D01*
X51403238Y-106926095D01*
X81161333Y-122372380D02*
X81161333Y-121372380D01*
X81542285Y-121372380D01*
X81637523Y-121420000D01*
X81685142Y-121467619D01*
X81732761Y-121562857D01*
X81732761Y-121705714D01*
X81685142Y-121800952D01*
X81637523Y-121848571D01*
X81542285Y-121896190D01*
X81161333Y-121896190D01*
X82589904Y-121705714D02*
X82589904Y-122372380D01*
X82161333Y-121705714D02*
X82161333Y-122229523D01*
X82208952Y-122324761D01*
X82304190Y-122372380D01*
X82447047Y-122372380D01*
X82542285Y-122324761D01*
X82589904Y-122277142D01*
X83066095Y-122372380D02*
X83066095Y-121705714D01*
X83066095Y-121800952D02*
X83113714Y-121753333D01*
X83208952Y-121705714D01*
X83351809Y-121705714D01*
X83447047Y-121753333D01*
X83494666Y-121848571D01*
X83494666Y-122372380D01*
X83494666Y-121848571D02*
X83542285Y-121753333D01*
X83637523Y-121705714D01*
X83780380Y-121705714D01*
X83875619Y-121753333D01*
X83923238Y-121848571D01*
X83923238Y-122372380D01*
X84399428Y-121705714D02*
X84399428Y-122705714D01*
X84399428Y-121753333D02*
X84494666Y-121705714D01*
X84685142Y-121705714D01*
X84780380Y-121753333D01*
X84828000Y-121800952D01*
X84875619Y-121896190D01*
X84875619Y-122181904D01*
X84828000Y-122277142D01*
X84780380Y-122324761D01*
X84685142Y-122372380D01*
X84494666Y-122372380D01*
X84399428Y-122324761D01*
X86256571Y-121372380D02*
X86351809Y-121372380D01*
X86447047Y-121420000D01*
X86494666Y-121467619D01*
X86542285Y-121562857D01*
X86589904Y-121753333D01*
X86589904Y-121991428D01*
X86542285Y-122181904D01*
X86494666Y-122277142D01*
X86447047Y-122324761D01*
X86351809Y-122372380D01*
X86256571Y-122372380D01*
X86161333Y-122324761D01*
X86113714Y-122277142D01*
X86066095Y-122181904D01*
X86018476Y-121991428D01*
X86018476Y-121753333D01*
X86066095Y-121562857D01*
X86113714Y-121467619D01*
X86161333Y-121420000D01*
X86256571Y-121372380D01*
X86970857Y-121467619D02*
X87018476Y-121420000D01*
X87113714Y-121372380D01*
X87351809Y-121372380D01*
X87447047Y-121420000D01*
X87494666Y-121467619D01*
X87542285Y-121562857D01*
X87542285Y-121658095D01*
X87494666Y-121800952D01*
X86923238Y-122372380D01*
X87542285Y-122372380D01*
X81161333Y-108656380D02*
X81161333Y-107656380D01*
X81542285Y-107656380D01*
X81637523Y-107704000D01*
X81685142Y-107751619D01*
X81732761Y-107846857D01*
X81732761Y-107989714D01*
X81685142Y-108084952D01*
X81637523Y-108132571D01*
X81542285Y-108180190D01*
X81161333Y-108180190D01*
X82589904Y-107989714D02*
X82589904Y-108656380D01*
X82161333Y-107989714D02*
X82161333Y-108513523D01*
X82208952Y-108608761D01*
X82304190Y-108656380D01*
X82447047Y-108656380D01*
X82542285Y-108608761D01*
X82589904Y-108561142D01*
X83066095Y-108656380D02*
X83066095Y-107989714D01*
X83066095Y-108084952D02*
X83113714Y-108037333D01*
X83208952Y-107989714D01*
X83351809Y-107989714D01*
X83447047Y-108037333D01*
X83494666Y-108132571D01*
X83494666Y-108656380D01*
X83494666Y-108132571D02*
X83542285Y-108037333D01*
X83637523Y-107989714D01*
X83780380Y-107989714D01*
X83875619Y-108037333D01*
X83923238Y-108132571D01*
X83923238Y-108656380D01*
X84399428Y-107989714D02*
X84399428Y-108989714D01*
X84399428Y-108037333D02*
X84494666Y-107989714D01*
X84685142Y-107989714D01*
X84780380Y-108037333D01*
X84828000Y-108084952D01*
X84875619Y-108180190D01*
X84875619Y-108465904D01*
X84828000Y-108561142D01*
X84780380Y-108608761D01*
X84685142Y-108656380D01*
X84494666Y-108656380D01*
X84399428Y-108608761D01*
X86256571Y-107656380D02*
X86351809Y-107656380D01*
X86447047Y-107704000D01*
X86494666Y-107751619D01*
X86542285Y-107846857D01*
X86589904Y-108037333D01*
X86589904Y-108275428D01*
X86542285Y-108465904D01*
X86494666Y-108561142D01*
X86447047Y-108608761D01*
X86351809Y-108656380D01*
X86256571Y-108656380D01*
X86161333Y-108608761D01*
X86113714Y-108561142D01*
X86066095Y-108465904D01*
X86018476Y-108275428D01*
X86018476Y-108037333D01*
X86066095Y-107846857D01*
X86113714Y-107751619D01*
X86161333Y-107704000D01*
X86256571Y-107656380D01*
X87542285Y-108656380D02*
X86970857Y-108656380D01*
X87256571Y-108656380D02*
X87256571Y-107656380D01*
X87161333Y-107799238D01*
X87066095Y-107894476D01*
X86970857Y-107942095D01*
X72666666Y-101252380D02*
X72666666Y-101966666D01*
X72619047Y-102109523D01*
X72523809Y-102204761D01*
X72380952Y-102252380D01*
X72285714Y-102252380D01*
X73142857Y-102252380D02*
X73142857Y-101252380D01*
X73523809Y-101252380D01*
X73619047Y-101300000D01*
X73666666Y-101347619D01*
X73714285Y-101442857D01*
X73714285Y-101585714D01*
X73666666Y-101680952D01*
X73619047Y-101728571D01*
X73523809Y-101776190D01*
X73142857Y-101776190D01*
X74095238Y-101347619D02*
X74142857Y-101300000D01*
X74238095Y-101252380D01*
X74476190Y-101252380D01*
X74571428Y-101300000D01*
X74619047Y-101347619D01*
X74666666Y-101442857D01*
X74666666Y-101538095D01*
X74619047Y-101680952D01*
X74047619Y-102252380D01*
X74666666Y-102252380D01*
X61566666Y-101252380D02*
X61566666Y-101966666D01*
X61519047Y-102109523D01*
X61423809Y-102204761D01*
X61280952Y-102252380D01*
X61185714Y-102252380D01*
X62042857Y-102252380D02*
X62042857Y-101252380D01*
X62423809Y-101252380D01*
X62519047Y-101300000D01*
X62566666Y-101347619D01*
X62614285Y-101442857D01*
X62614285Y-101585714D01*
X62566666Y-101680952D01*
X62519047Y-101728571D01*
X62423809Y-101776190D01*
X62042857Y-101776190D01*
X63566666Y-102252380D02*
X62995238Y-102252380D01*
X63280952Y-102252380D02*
X63280952Y-101252380D01*
X63185714Y-101395238D01*
X63090476Y-101490476D01*
X62995238Y-101538095D01*
M02*
